HIERARCHY
ROOT Hips
{
	OFFSET	0.00	0.00	0.00
	CHANNELS 6 Xposition Yposition Zposition Zrotation Xrotation Yrotation
	JOINT LeftUpperLeg
	{
		OFFSET	 0.100000	-0.066564	-0.000554
		CHANNELS 3 Zrotation Xrotation Yrotation
		JOINT LeftLowerLeg
		{
			OFFSET	 0.002447	-0.463436	-0.005172
			CHANNELS 3 Zrotation Xrotation Yrotation
			JOINT LeftFoot
			{
				OFFSET	-0.002447	-0.420480	-0.020576
				CHANNELS 3 Zrotation Xrotation Yrotation
				JOINT LeftToes
				{
					OFFSET	 0.003734	-0.104922	 0.126407
					CHANNELS 3 Zrotation Xrotation Yrotation
					End Site
					{
						OFFSET	 0.000000	 0.000000	 0.059955
					}
				}
			}
		}
	}
	JOINT RightUpperLeg
	{
		OFFSET	-0.100000	-0.066564	-0.000554
		CHANNELS 3 Zrotation Xrotation Yrotation
		JOINT RightLowerLeg
		{
			OFFSET	-0.002447	-0.463436	-0.005146
			CHANNELS 3 Zrotation Xrotation Yrotation
			JOINT RightFoot
			{
				OFFSET	 0.002447	-0.420479	-0.020602
				CHANNELS 3 Zrotation Xrotation Yrotation
				JOINT RightToes
				{
					OFFSET	-0.003734	-0.104922	 0.126407
					CHANNELS 3 Zrotation Xrotation Yrotation
					End Site
					{
						OFFSET	-0.000000	 0.000000	 0.059955
					}
				}
			}
		}
	}
	JOINT Spine
	{
		OFFSET	 0.000000	 0.099235	-0.012273
		CHANNELS 3 Zrotation Xrotation Yrotation
		JOINT Chest
		{
			OFFSET	-0.000001	 0.116455	-0.014223
			CHANNELS 3 Zrotation Xrotation Yrotation
			JOINT UpperChest
			{
				OFFSET	 0.000001	 0.133602	-0.016265
				CHANNELS 3 Zrotation Xrotation Yrotation
				JOINT LeftShoulder
				{
					OFFSET	 0.061058	 0.091105	 0.007056
					CHANNELS 3 Zrotation Xrotation Yrotation
					JOINT LeftUpperArm
					{
						OFFSET	 0.133942	-0.002659	-0.026009
						CHANNELS 3 Zrotation Xrotation Yrotation
						JOINT LeftLowerArm
						{
							OFFSET	 0.274047	 0.000000	 0.000000
							CHANNELS 3 Zrotation Xrotation Yrotation
							JOINT LeftHand
							{
								OFFSET	 0.276145	 0.000000	 0.000000
								CHANNELS 3 Zrotation Xrotation Yrotation
								End Site
								{
									OFFSET	 0.165687	 0.000000	 0.000000
								}
							}
						}
					}
				}
				JOINT Neck
				{
					OFFSET	 0.000000	 0.150325	 0.007929
					CHANNELS 3 Zrotation Xrotation Yrotation
					JOINT Head
					{
						OFFSET	 0.000000	 0.103218	 0.031424
						CHANNELS 3 Zrotation Xrotation Yrotation
						End Site
						{
							OFFSET	 0.000000	 0.061931	 0.018855
						}
					}
				}
				JOINT RightShoulder
				{
					OFFSET	-0.061057	 0.091105	 0.007056
					CHANNELS 3 Zrotation Xrotation Yrotation
					JOINT RightUpperArm
					{
						OFFSET	-0.133943	-0.002660	-0.026009
						CHANNELS 3 Zrotation Xrotation Yrotation
						JOINT RightLowerArm
						{
							OFFSET	-0.274047	 0.000000	 0.000000
							CHANNELS 3 Zrotation Xrotation Yrotation
							JOINT RightHand
							{
								OFFSET	-0.276145	 0.000000	 0.000000
								CHANNELS 3 Zrotation Xrotation Yrotation
								End Site
								{
									OFFSET	-0.165687	 0.000000	 0.000000
								}
							}
						}
					}
				}
			}
		}
	}
}
MOTION
Frames:    11
Frame Time: 0.03333334
-0.245220	 1.035450	-0.130300	-2.497568	 1.351171	 9.930655	 3.545796	-11.514160	 10.988850	 0.650371	 27.841360	-0.164010	 0.651825	-17.597550	 12.059820	-0.000283	 0.333717	 0.056325	-8.911811	-13.599690	-14.455810	 0.189874	 10.283670	-0.009283	 2.214759	 4.459743	-2.339129	-0.000852	 0.313530	 0.000374	 0.053531	 0.602707	-1.971551	-0.000000	 0.000000	 0.000000	 0.129357	 1.205442	-3.949486	 0.180996	 2.341268	 17.359460	-79.150940	 3.587013	-7.016233	-27.505610	 45.000430	-65.320980	 35.939430	 35.334830	-31.238670	-0.381954	 1.182862	-0.540938	-0.156033	 1.651570	-0.650508	-1.721624	 1.567724	-8.675414	 79.001640	 4.727293	 8.824416	 24.017910	 44.909160	 70.346240	-35.624570	 10.124630	 11.706660
-0.249830	 1.034980	-0.130770	-1.448895	 1.500517	 10.350240	 2.682587	-11.450050	 10.713110	 0.694563	 27.483740	-0.173777	 0.334387	-17.216830	 11.798710	 0.000812	 0.356481	 0.118955	-9.532283	-12.004070	-17.683620	 0.496348	 24.511960	-0.101403	 4.363800	-10.520980	 0.466216	 0.000375	 0.350056	 0.000458	-0.154862	 0.227998	-1.838191	-0.000000	 0.000000	 0.000000	-0.302131	 0.461285	-3.683360	-0.115130	 2.354965	 17.976300	-78.850340	 3.432944	-7.195535	-27.980130	 45.379000	-65.120900	 36.459160	 33.682040	-31.867180	-0.609763	 1.275838	-0.476624	-0.413514	 1.582798	-0.674290	-1.826107	 1.664492	-8.270179	 78.715420	 4.934687	 9.169188	 25.000510	 44.705830	 69.046830	-33.837040	 8.104889	 11.126200
-0.253040	 1.035380	-0.130650	-1.648560	 1.471306	 10.497610	 3.054635	-11.493610	 10.454740	 0.621386	 27.442160	-0.155708	 0.246875	-17.051000	 11.944280	 0.000156	 0.285607	 0.062567	-8.906564	-10.496790	-19.129690	 0.468341	 24.630530	-0.095256	 5.008056	-11.822520	 1.930470	 0.000471	 0.203876	 0.000080	 0.020565	 0.111232	-1.763739	-0.000000	 0.000000	 0.000000	 0.045089	 0.224207	-3.534418	 0.143919	 2.607213	 17.845490	-78.900830	 3.100831	-7.424307	-27.772320	 45.252930	-64.963790	 35.614650	 33.784820	-31.646100	-0.230503	 1.319588	-0.545903	-0.587651	 1.535083	-0.695457	-1.412023	 1.690860	-8.409831	 78.497250	 5.089465	 9.481426	 26.371690	 44.547640	 67.546660	-33.642960	 7.930648	 11.517540
-0.253040	 1.035380	-0.130650	-1.648560	 1.471306	 10.497610	 3.054635	-11.493610	 10.454740	 0.621386	 27.442160	-0.155708	 0.246875	-17.051000	 11.944280	 0.000156	 0.285607	 0.062567	-8.906564	-10.496790	-19.129690	 0.468341	 24.630530	-0.095256	 5.008056	-11.822520	 1.930470	 0.000471	 0.203876	 0.000080	 0.020565	 0.111232	-1.763739	-0.000000	 0.000000	 0.000000	 0.045089	 0.224207	-3.534418	 0.143919	 2.607213	 17.845490	-78.900830	 3.100831	-7.424307	-27.772320	 45.252930	-64.963790	 35.614650	 33.784820	-31.646100	-0.230503	 1.319588	-0.545903	-0.587651	 1.535083	-0.695457	-1.412023	 1.690860	-8.409831	 78.497250	 5.089465	 9.481426	 26.371690	 44.547640	 67.546660	-33.642960	 7.930648	 11.517540
-0.257550	 1.035550	-0.129900	-1.578372	 1.543851	 10.825810	 3.137234	-11.630520	 10.094190	 0.733520	 27.438730	-0.181796	 0.068569	-16.802140	 11.954130	-0.000055	 0.155054	 0.077602	-8.105568	-9.181580	-18.151760	 0.759125	 24.312780	-0.156143	 4.939760	-13.247290	 0.709932	 0.000450	 0.054450	-0.000329	 0.083414	-0.158549	-1.680270	-0.000000	 0.000000	 0.000000	 0.161430	-0.319544	-3.365147	-0.176817	 2.374370	 17.904010	-79.459240	 2.958390	-7.029917	-27.587690	 45.315090	-64.663870	 34.891290	 34.322690	-31.468590	-0.591248	 0.984532	-0.553893	-0.735926	 1.521790	-0.717824	-1.649812	 1.176797	-8.527654	 78.160570	 5.365053	 9.166790	 27.463640	 44.339580	 66.537990	-34.257950	 7.869551	 11.736290
-0.260460	 1.035870	-0.129500	-1.257277	 1.450213	 11.145730	 2.862233	-11.469000	 9.153964	 0.594931	 27.258400	-0.147847	 0.073924	-16.526970	 12.566400	 0.000588	 0.224187	 0.084260	-8.122125	-8.829720	-18.074170	 0.795704	 24.236050	-0.163762	 4.722204	-13.563370	 0.204185	-0.001195	 0.017789	 0.000162	 0.023336	-0.201739	-1.679302	-0.000000	 0.000000	 0.000000	 0.042551	-0.403374	-3.362962	-0.349691	 2.836691	 17.728480	-79.955050	 3.011405	-6.584547	-27.207740	 45.260160	-65.229970	 34.475780	 34.684890	-31.640910	-0.832783	 1.264643	-0.747114	-0.719402	 1.355810	-0.747634	-1.938295	 1.650215	-8.689882	 78.091930	 5.718557	 9.059907	 27.004590	 44.243200	 67.179380	-34.748890	 7.587270	 11.392080
-0.264020	 1.036730	-0.129400	-1.144169	 1.167341	 11.431250	 2.926358	-11.068780	 8.962019	 0.690667	 26.864740	-0.169609	-0.150495	-16.163130	 12.420420	 0.000262	 0.226058	 0.088471	-8.070915	-8.393836	-19.386550	 0.626823	 24.096240	-0.127060	 4.714380	-13.382390	 1.027453	-0.000016	-0.082042	 0.000171	 0.075172	-0.090323	-1.677913	-0.000000	 0.000000	 0.000000	 0.149441	-0.183399	-3.359060	-0.055009	 3.001825	 17.725600	-80.473520	 2.782188	-6.054053	-26.214840	 45.240000	-66.739070	 32.760200	 35.185360	-31.789330	-0.611875	 1.121945	-0.691430	-0.705746	 0.897538	-0.696565	-1.721443	 1.810180	-8.584154	 78.074680	 5.952488	 9.093676	 26.623420	 44.111010	 67.839650	-35.027130	 7.763196	 11.368570
-0.267790	 1.037490	-0.129700	-1.159916	 1.054849	 11.594930	 3.194267	-10.880730	 8.916144	 0.637279	 26.512880	-0.154768	-0.301268	-15.809410	 12.238390	 0.000288	 0.128238	 0.096054	-7.798832	-8.168259	-19.660260	 0.646115	 23.798250	-0.128274	 4.768248	-13.198340	 1.001931	 0.000109	-0.243688	-0.000484	 0.157937	-0.043630	-1.621824	-0.000000	 0.000000	 0.000000	 0.314170	-0.092064	-3.251397	 0.003668	 2.790880	 17.733560	-80.668690	 2.435854	-5.914120	-25.899600	 45.178760	-67.375350	 30.682240	 35.830880	-31.532340	-0.559839	 0.767458	-0.580039	-0.717740	 0.669284	-0.687801	-1.536792	 1.586360	-8.510390	 77.954350	 5.713987	 9.227432	 26.738740	 44.317290	 67.867530	-35.453860	 8.331698	 12.146040
-0.278000	 1.038980	-0.129730	-0.966436	 1.076595	 12.392820	 3.580152	-10.609560	 8.865097	 0.680623	 25.504420	-0.158985	-1.099719	-15.029230	 11.346920	-0.000515	 0.188272	 0.085573	-7.293567	-7.824766	-19.995240	 0.675832	 23.183770	-0.129997	 4.322249	-13.327550	 0.573053	-0.000542	-0.062582	-0.000201	 0.249466	-0.260245	-1.531807	-0.000000	 0.000000	 0.000000	 0.493804	-0.529124	-3.067206	-0.053188	 2.604038	 17.736120	-80.522420	 2.243490	-6.284151	-26.830440	 45.006550	-66.298490	 28.194740	 36.286870	-30.758180	-0.622676	 0.710848	-0.799109	-0.763100	 0.897660	-0.771491	-1.153082	 1.483987	-8.931780	 77.746080	 5.647094	 9.157235	 27.987480	 44.344020	 66.817470	-37.889880	 7.681551	 14.547510
-0.278000	 1.038980	-0.129730	-0.966436	 1.076595	 12.392820	 3.580152	-10.609560	 8.865097	 0.680623	 25.504420	-0.158985	-1.099719	-15.029230	 11.346920	-0.000515	 0.188272	 0.085573	-7.293567	-7.824766	-19.995240	 0.675832	 23.183770	-0.129997	 4.322249	-13.327550	 0.573053	-0.000542	-0.062582	-0.000201	 0.249466	-0.260245	-1.531807	-0.000000	 0.000000	 0.000000	 0.493804	-0.529124	-3.067206	-0.053188	 2.604038	 17.736120	-80.522420	 2.243490	-6.284151	-26.830440	 45.006550	-66.298490	 28.194740	 36.286870	-30.758180	-0.622676	 0.710848	-0.799109	-0.763100	 0.897660	-0.771491	-1.153082	 1.483987	-8.931780	 77.746080	 5.647094	 9.157235	 27.987480	 44.344020	 66.817470	-37.889880	 7.681551	 14.547510
-0.282460	 1.039610	-0.129540	-0.909249	 1.013172	 12.791820	 3.764843	-10.434960	 8.568080	 0.634762	 25.075080	-0.146951	-1.332231	-14.666010	 11.147550	 0.000213	 0.173742	 0.089007	-7.016485	-7.547867	-20.276380	 0.652024	 22.820030	-0.123460	 4.094451	-13.300460	 0.461050	-0.000648	-0.132428	-0.000433	 0.333053	-0.344109	-1.522610	-0.000000	 0.000000	 0.000000	 0.656831	-0.696509	-3.047101	-0.011863	 2.478023	 17.989600	-80.403530	 2.614321	-6.203370	-27.006410	 45.021760	-66.048650	 28.218780	 35.701600	-30.499440	-0.667401	 0.765105	-0.764639	-0.837740	 0.925023	-0.780780	-1.108680	 1.648822	-8.912812	 77.749980	 5.969779	 9.287085	 28.548750	 44.003500	 66.284490	-38.895370	 6.324623	 14.804610
